<svg width="40" height="40" viewBox="0 0 40 40" fill="none" xmlns="http://www.w3.org/2000/svg">
<g clip-path="url(#clip0_801_85)">
<path d="M40 20.1809C40.0306 31.1811 31.1495 39.979 19.9924 40.0001C9.04255 40.0212 0.013928 31.06 1.64549e-05 20.1626C-0.0138951 8.95274 8.79492 0.0479014 19.9451 5.62102e-05C30.9937 -0.0463818 39.968 8.98511 40 20.1809ZM1.47882 19.9825C1.53586 30.3663 9.82578 38.6097 20.1607 38.5577C30.3245 38.5084 38.556 30.2016 38.5115 20.0373C38.4656 9.70982 30.1047 1.40727 19.7962 1.46778C9.74648 1.52266 1.42178 9.93216 1.47882 19.9825Z" fill="#020202"/>
<path d="M12.6818 19.0691C12.6262 18.6582 12.6248 18.2248 12.501 17.8406C12.3196 17.2195 12.0719 16.6203 11.7622 16.0535C11.6398 15.8424 11.1696 15.6665 10.9456 15.741C10.7564 15.803 10.6215 16.2462 10.5923 16.5333C10.5631 16.8204 10.6758 17.1314 10.755 17.4241C11.4506 20.033 11.3115 22.552 10.0678 24.9907C9.54891 26.0067 9.15382 27.0846 8.69891 28.1344C8.60153 28.3595 8.49163 28.5819 8.34973 28.8844C7.20064 27.5954 6.49532 26.1615 6.00285 24.6262C3.12593 15.6721 9.19278 6.3071 18.4621 5.36568C22.1971 4.97719 25.9386 6.03794 28.93 8.33341C31.9213 10.6289 33.9393 13.9878 34.5759 17.7308C35.8891 25.4818 30.6806 32.9062 22.9027 34.3528C18.846 35.1099 15.0774 34.4471 11.6885 31.9887C10.4365 31.0839 9.42649 29.9272 9.89253 28.2695C10.8844 24.7514 12.3479 22.908 16.7704 23.4469C19.6153 23.7931 21.972 25.2679 24.2827 26.8566C25.1675 27.4645 26.1774 27.9022 27.1679 28.3286C27.5618 28.4688 27.9896 28.4787 28.3894 28.3567C28.7274 28.2596 29.1907 27.9753 29.2561 27.6925C29.2888 27.4837 29.2774 27.2702 29.2225 27.0661C29.1676 26.8621 29.0704 26.6722 28.9375 26.509C28.5355 26.089 28.0467 25.7642 27.506 25.5578C24.113 24.2519 20.6893 23.0332 17.0723 22.5463C16.9567 22.5442 16.8431 22.5158 16.7398 22.4633C16.5478 22.3226 16.2153 22.1213 16.2376 22.0003C16.2689 21.875 16.3273 21.7582 16.4086 21.6584C16.4899 21.5586 16.5921 21.4784 16.7078 21.4234C17.8541 21.0012 19.0464 21.042 20.1941 21.36C22.1987 21.9131 24.17 22.5829 26.1691 23.1556C27.0803 23.4224 28.0105 23.6177 28.9514 23.7396C29.5227 23.8023 30.1006 23.7443 30.6486 23.5694C30.9171 23.4835 31.2204 23.0543 31.2454 22.7574C31.2705 22.4605 31.0465 21.9905 30.7947 21.8498C30.2768 21.5472 29.7029 21.3556 29.1086 21.2869C27.3112 21.1462 25.5027 21.118 23.7026 20.9815C22.9193 20.9088 22.1443 20.7627 21.3877 20.5453C21.1512 20.4805 20.8201 20.1667 20.8215 19.9697C20.8215 19.746 21.1164 19.3787 21.3404 19.3266C22.3664 19.0617 23.4102 18.8736 24.4635 18.7637C25.9145 18.6427 27.385 18.7018 28.8332 18.5892C29.3829 18.5303 29.9091 18.3323 30.3634 18.0137C30.6208 17.8364 30.8406 17.3016 30.7641 17.0132C30.6778 16.6881 30.2619 16.2702 29.9489 16.2308C29.3575 16.1749 28.7612 16.2459 28.1988 16.439C27.5672 16.6445 27.0093 17.0695 26.3903 17.3045C25.64 17.5923 24.8664 17.8136 24.0782 17.9659C23.7805 18.0207 23.4271 17.7688 23.1044 17.6563C23.2588 17.3875 23.3478 17.0075 23.5788 16.8696C24.867 16.1041 26.1747 15.3667 27.506 14.6828C28.2016 14.3254 28.9876 14.1467 29.6901 13.8005C30.4775 13.4135 30.7418 12.8155 30.5499 12.1597C30.3732 11.549 29.8459 11.2408 28.9862 11.3027C27.5853 11.404 26.4988 12.178 25.5667 13.1321C24.2382 14.5013 23.0084 15.9662 21.7021 17.3537C20.9632 18.1563 20.1757 18.9116 19.3441 19.6151C19.0213 19.8825 18.501 19.9852 18.0614 20.0119C17.3909 20.0527 17.1168 19.549 17.5244 19.0002C17.8905 18.5185 18.3262 18.0953 18.8168 17.7449C21.1456 16.0563 23.0501 13.9694 24.6819 11.6179C25.0087 11.1431 25.2142 10.594 25.2801 10.0193C25.365 9.14826 24.4788 8.63885 23.7693 9.14263C23.3183 9.47488 22.945 9.90341 22.6759 10.3979C21.8412 11.9064 21.0858 13.46 20.2622 14.9755C20.0151 15.3981 19.7102 15.7833 19.3566 16.1196C19.2063 16.2702 18.9184 16.2814 18.6944 16.356C18.6485 16.1421 18.5247 15.9085 18.572 15.7171C18.8252 14.6997 19.1159 13.6921 19.4067 12.6832C19.6237 11.9205 19.8936 11.1704 20.0619 10.3979C20.1384 10.01 20.1174 9.60882 20.0007 9.23129C19.927 8.99628 19.6334 8.70921 19.4067 8.67685C19.1799 8.64448 18.7723 8.81757 18.6596 9.0202C18.42 9.44116 18.2715 9.90884 18.2242 10.3922C18.0614 12.5861 17.9682 14.787 17.2212 16.8879C16.6146 18.5935 15.8773 20.2286 14.6086 21.5514C14.2722 21.9062 13.8991 22.2232 13.4956 22.4971C13.3203 22.6139 13.0324 22.5562 12.8001 22.5773C12.782 22.3606 12.6929 22.1185 12.7611 21.9342C12.9297 21.4517 13.1435 20.9866 13.3996 20.5453C14.0827 19.404 14.8562 18.3177 15.4864 17.1497C16.3684 15.5243 16.9262 13.7963 16.5395 11.8965C16.4748 11.5785 16.3726 11.2695 16.2348 10.9762C15.9858 10.4499 15.6478 9.97148 14.9828 10.077C14.2872 10.1854 13.8198 10.661 13.7697 11.3435C13.7143 11.9685 13.797 12.5982 14.0118 13.187C14.7463 15.0304 14.4681 16.7458 13.5207 18.419C13.3635 18.7004 13.1214 18.9256 12.9183 19.1775L12.6818 19.0691Z" fill="#020202"/>
</g>
<defs>
<clipPath id="clip0_801_85">
<rect width="40" height="40" fill="white"/>
</clipPath>
</defs>
</svg>
