<svg width="260" height="260" viewBox="0 0 260 260" fill="currentColor" xmlns="http://www.w3.org/2000/svg">
<circle cx="130" cy="130" r="108.333" fill="currentColor"/>
<path d="M260 130C260 154.669 252.981 178.829 239.763 199.657L228.786 192.692C240.683 173.946 247 152.202 247 130H260Z" fill="currentColor"/>
<path d="M235.172 206.412C220.672 226.37 200.793 241.79 177.856 250.871L173.071 238.784C193.714 230.611 211.605 216.733 224.655 198.771L235.172 206.412Z" fill="currentColor"/>
<path d="M170.172 253.637C146.711 261.26 121.564 262.051 97.6703 255.916L100.903 243.324C122.408 248.846 145.04 248.134 166.155 241.274L170.172 253.637Z" fill="currentColor"/>
<path d="M89.8278 253.637C66.3662 246.014 45.5579 231.873 29.8333 212.865L39.8499 204.579C54.0021 221.686 72.7296 234.413 93.845 241.274L89.8278 253.637Z" fill="currentColor"/>
<path d="M24.8278 206.412C10.3277 186.454 1.8055 162.783 0.256525 138.163L13.2309 137.346C14.625 159.505 22.2949 180.809 35.345 198.771L24.8278 206.412Z" fill="currentColor"/>
<path d="M0 130C2.15663e-06 105.331 7.01907 81.1712 20.2374 60.3425L31.2136 67.3083C19.3172 86.0541 13 107.798 13 130H0Z" fill="currentColor"/>
<path d="M24.8278 53.5879C39.3279 33.6303 59.2072 18.2103 82.1438 9.12906L86.9294 21.2162C66.2864 29.3893 48.3951 43.2673 35.345 61.2291L24.8278 53.5879Z" fill="currentColor"/>
<path d="M89.8278 6.36266C113.289 -1.26048 138.436 -2.05074 162.33 4.08419L159.097 16.6758C137.592 11.1543 114.96 11.8656 93.845 18.7264L89.8278 6.36266Z" fill="currentColor"/>
<path d="M170.172 6.36266C193.634 13.9858 214.442 28.1271 230.167 47.1349L220.15 55.4214C205.998 38.3144 187.27 25.5872 166.155 18.7264L170.172 6.36266Z" fill="currentColor"/>
<path d="M235.172 53.588C249.672 73.5456 258.195 97.217 259.743 121.837L246.769 122.654C245.375 100.495 237.705 79.191 224.655 61.2292L235.172 53.588Z" fill="currentColor"/>
</svg>
