<svg width="201" height="120" viewBox="0 0 201 120" fill="none" xmlns="http://www.w3.org/2000/svg">
<g clip-path="url(#clip0_684_3247)">
<path d="M153.625 118.643C151.064 116.472 149.509 113.042 149.917 109.702C150.325 106.363 152.851 103.293 156.128 102.584C159.405 101.875 163.14 103.838 164.136 107.05C164.683 100.857 165.315 94.4036 168.596 89.1291C171.567 84.3532 176.713 80.9358 182.29 80.3245C187.867 79.7131 193.739 82.0222 197.217 86.4398C200.695 90.8574 201.547 97.2797 199.111 102.351C197.316 106.088 194.01 108.868 190.546 111.13C179.352 118.378 165.927 121.326 152.74 119.431L153.625 118.643Z" fill="#F2F2F2"/>
<path d="M191.702 82.1501C187.1 85.9117 182.878 90.1187 179.098 94.7104C173.182 101.872 168.394 109.901 164.902 118.518C164.647 119.147 165.664 119.42 165.917 118.799C171.63 104.794 180.751 92.4502 192.446 82.8966C192.971 82.4674 192.223 81.7245 191.702 82.1501Z" fill="white"/>
<path d="M64.8832 118.053C68.4001 115.071 70.5363 110.359 69.9761 105.773C69.4159 101.186 65.9461 96.97 61.4452 95.996C56.9443 95.022 51.8136 97.7181 50.4465 102.131C49.6941 93.6236 48.8272 84.7601 44.3204 77.5156C40.2397 70.9559 33.1718 66.2622 25.5118 65.4225C17.8517 64.5827 9.78672 67.7542 5.00944 73.8218C0.232162 79.8894 -0.937534 88.7104 2.40835 95.6766C4.87314 100.808 9.41416 104.627 14.172 107.734C29.3512 117.647 48.181 121.781 66.0978 119.135" fill="#F2F2F2"/>
<path d="M12.5841 67.93C18.9046 73.0966 24.703 78.8749 29.8953 85.1816C35.0886 91.4817 39.6606 98.2725 43.5473 105.459C45.7198 109.49 47.6714 113.637 49.3934 117.881C49.7445 118.745 48.3474 119.121 48.0002 118.267C44.9501 110.784 41.1766 103.618 36.7338 96.874C32.3125 90.154 27.2521 83.8803 21.6237 78.1409C18.4403 74.8963 15.0815 71.8298 11.5625 68.9553C10.8412 68.3659 11.8688 67.3455 12.5841 67.93Z" fill="white"/>
<path d="M144.063 119.737H60.1553V33.3373C60.1553 14.955 75.0569 0 93.3736 0H110.845C129.162 0 144.063 14.955 144.063 33.3373V119.737Z" fill="#F2F2F2"/>
<path d="M126.592 119.737H60.1554V33.3373C60.137 26.2936 62.3595 19.428 66.4992 13.74C66.6518 13.5312 66.804 13.3252 66.961 13.1214C68.9634 10.4858 71.3462 8.16469 74.0309 6.23465C74.1826 6.12391 74.3348 6.01509 74.4894 5.90627C76.7358 4.34609 79.1659 3.07067 81.7243 2.10905C81.8763 2.05126 82.0309 1.99336 82.1856 1.93782C84.4995 1.10914 86.898 0.541491 89.337 0.245367C89.4882 0.224638 89.6434 0.208417 89.7987 0.192196C92.1754 -0.0628446 94.5726 -0.0628446 96.9493 0.192196C97.1041 0.208417 97.2594 0.224636 97.4124 0.245589C99.8507 0.541732 102.249 1.10931 104.562 1.93783C104.717 1.99337 104.871 2.05127 105.024 2.10917C107.55 3.05866 109.952 4.31505 112.175 5.85029C112.329 5.95674 112.484 6.06556 112.636 6.17438C114.141 7.25242 115.554 8.45342 116.862 9.76512C117.911 10.8172 118.888 11.9387 119.787 13.1221C119.944 13.3252 120.096 13.5312 120.248 13.7396C124.388 19.4277 126.61 26.2935 126.592 33.3373V119.737Z" fill="#CCCCCC"/>
<path d="M121.19 81.0938C123.221 81.0938 124.868 79.4412 124.868 77.4025C124.868 75.3638 123.221 73.7112 121.19 73.7112C119.158 73.7112 117.512 75.3638 117.512 77.4025C117.512 79.4412 119.158 81.0938 121.19 81.0938Z" fill="#F7C324"/>
<path d="M137.19 117.149H134.371L133.03 106.24L137.19 106.24L137.19 117.149Z" fill="#FFB8B8"/>
<path d="M132.358 116.341H137.793V119.776H128.936C128.936 119.325 129.024 118.878 129.196 118.461C129.368 118.045 129.62 117.666 129.938 117.347C130.256 117.028 130.633 116.775 131.048 116.603C131.463 116.43 131.908 116.341 132.358 116.341Z" fill="#2F2E41"/>
<path d="M151.213 117.149H148.394L147.053 106.24L151.213 106.24L151.213 117.149Z" fill="#FFB8B8"/>
<path d="M146.381 116.341H151.816V119.776H142.958C142.958 119.325 143.047 118.878 143.219 118.461C143.391 118.045 143.643 117.666 143.961 117.347C144.279 117.028 144.656 116.775 145.071 116.603C145.486 116.43 145.931 116.341 146.381 116.341Z" fill="#2F2E41"/>
<path d="M123.051 78.1337C122.848 77.8339 122.714 77.4932 122.656 77.1354C122.599 76.7777 122.621 76.4117 122.719 76.0632C122.818 75.7147 122.992 75.3922 123.229 75.1185C123.465 74.8447 123.758 74.6263 124.088 74.4786L133.669 47.978L138.383 50.5599L127.444 75.8849C127.654 76.4572 127.648 77.087 127.427 77.6552C127.206 78.2233 126.784 78.6902 126.243 78.9674C125.701 79.2446 125.077 79.3129 124.489 79.1592C123.901 79.0055 123.389 78.6407 123.051 78.1337Z" fill="#FFB8B8"/>
<path d="M149.773 83.1133C149.459 82.9331 149.189 82.6862 148.982 82.3899C148.774 82.0936 148.633 81.7552 148.57 81.3985C148.506 81.0418 148.522 80.6755 148.615 80.3254C148.708 79.9752 148.876 79.6498 149.108 79.372L146.14 51.3389L151.505 51.5848L152.738 79.1591C153.177 79.5809 153.447 80.1496 153.496 80.7577C153.546 81.3657 153.371 81.9707 153.005 82.4581C152.64 82.9455 152.109 83.2814 151.513 83.4022C150.917 83.5229 150.298 83.4202 149.773 83.1133Z" fill="#FFB8B8"/>
<path d="M141.214 43.0694C144.332 43.0694 146.86 40.5324 146.86 37.4029C146.86 34.2735 144.332 31.7365 141.214 31.7365C138.096 31.7365 135.568 34.2735 135.568 37.4029C135.568 40.5324 138.096 43.0694 141.214 43.0694Z" fill="#FFB8B8"/>
<path d="M149.737 76.7377H132.714L132.735 76.6048C132.765 76.4061 135.769 56.6626 133.554 50.2035C133.331 49.5687 133.351 48.8739 133.609 48.2528C133.866 47.6316 134.344 47.128 134.949 46.839C138.115 45.3427 144.192 43.5004 149.321 47.9716C150.076 48.6403 150.666 49.4762 151.043 50.413C151.42 51.3498 151.575 52.3619 151.496 53.3692L149.737 76.7377Z" fill="#F7C324"/>
<path d="M135.984 59.5804L128.32 58.0201L131.913 49.477C132.128 48.6496 132.661 47.9415 133.395 47.5081C134.13 47.0746 135.006 46.9513 135.831 47.165C136.656 47.3788 137.362 47.9122 137.796 48.6482C138.23 49.3843 138.355 50.263 138.144 51.0914L135.984 59.5804Z" fill="#F7C324"/>
<path d="M145.799 62.4775L145.338 51.8785C144.989 49.886 146.125 48.0025 147.873 47.6947C149.621 47.3879 151.329 48.7698 151.68 50.7769L153.411 60.6806L145.799 62.4775Z" fill="#F7C324"/>
<path d="M149.17 75.4688C151.909 85.9375 152.208 99.2477 151.469 113.766L147.791 113.305L141.124 85.6199L137.446 113.766L133.308 113.536C132.072 98.302 130.868 85.2242 132.848 76.6223L149.17 75.4688Z" fill="#2F2E41"/>
<path d="M144.934 41.7821C143.881 42.9081 141.925 42.3037 141.787 40.7653C141.777 40.6459 141.777 40.5257 141.79 40.4064C141.861 39.725 142.253 39.1064 142.159 38.3869C142.138 38.2078 142.071 38.0372 141.966 37.8911C141.126 36.7631 139.156 38.3957 138.364 37.3745C137.878 36.7484 138.449 35.7625 138.076 35.0627C137.584 34.139 136.127 34.5947 135.213 34.0888C134.197 33.526 134.258 31.9605 134.927 31.0083C135.743 29.847 137.174 29.2273 138.587 29.138C140.001 29.0487 141.404 29.4321 142.724 29.9481C144.223 30.5344 145.709 31.3447 146.632 32.6676C147.754 34.2764 147.862 36.4392 147.301 38.3204C146.959 39.4647 145.794 40.8626 144.934 41.7821Z" fill="#2F2E41"/>
<path d="M193.599 119.886H23.8764C23.804 119.886 23.7346 119.857 23.6834 119.805C23.6322 119.754 23.6035 119.684 23.6035 119.611C23.6035 119.538 23.6322 119.469 23.6834 119.417C23.7346 119.366 23.804 119.337 23.8764 119.336H193.599C193.672 119.337 193.741 119.366 193.792 119.417C193.843 119.469 193.872 119.538 193.872 119.611C193.872 119.684 193.843 119.754 193.792 119.805C193.741 119.857 193.672 119.886 193.599 119.886Z" fill="#3F3D56"/>
<path d="M108.316 94.7055H78.4313C78.0377 94.7076 77.6593 94.553 77.3792 94.2755C77.0991 93.9981 76.9401 93.6204 76.937 93.2255V26.2811C76.9401 25.8861 77.0991 25.5085 77.3792 25.231C77.6593 24.9535 78.0377 24.7989 78.4313 24.801H108.316C108.71 24.7989 109.088 24.9535 109.368 25.231C109.649 25.5085 109.808 25.8861 109.811 26.2811V93.2255C109.808 93.6204 109.649 93.9981 109.368 94.2755C109.088 94.553 108.71 94.7076 108.316 94.7055Z" fill="white"/>
<path d="M109.81 46.4622H76.9365V46.9236H109.81V46.4622Z" fill="#CCCCCC"/>
<path d="M109.925 72.7883H77.0518V73.2497H109.925V72.7883Z" fill="#CCCCCC"/>
<path d="M87.7415 24.8011H87.2817V94.9362H87.7415V24.8011Z" fill="#CCCCCC"/>
<path d="M99.2356 24.8011H98.7759V94.9362H99.2356V24.8011Z" fill="#CCCCCC"/>
</g>
<defs>
<clipPath id="clip0_684_3247">
<rect width="200" height="120" fill="white" transform="translate(0.5)"/>
</clipPath>
</defs>
</svg>
