<?xml version="1.0" encoding="utf-8"?>
<!-- Generator: Adobe Illustrator 27.5.0, SVG Export Plug-In . SVG Version: 6.00 Build 0)  -->
<svg version="1.1" id="圖層_1" xmlns="http://www.w3.org/2000/svg" xmlns:xlink="http://www.w3.org/1999/xlink" x="0px" y="0px"
	 viewBox="0 0 128 128" style="enable-background:new 0 0 128 128;" xml:space="preserve">
<style type="text/css">
	.st0{fill:#040000;}
	.st1{fill:#34B05A;}
	.st2{fill:#FFFFFF;}
</style>
<g>
	<g>
		<g>
			<path class="st0" d="M50.3,14.5h-4.5c-0.7,0-1.2,0.6-1.2,1.2v27.8c0,0.7,0.6,1.2,1.2,1.2h4.5c0.7,0,1.2-0.6,1.2-1.2V15.8
				C51.5,15.1,50.9,14.5,50.3,14.5z"/>
			<path class="st0" d="M39.5,37.8h-12V15.8c0-0.7-0.6-1.2-1.2-1.2h-4.5c-0.7,0-1.2,0.6-1.2,1.2v27.8c0,0.7,0.6,1.2,1.2,1.2h17.7
				c0.7,0,1.2-0.6,1.2-1.2v-4.5C40.7,38.4,40.2,37.8,39.5,37.8z"/>
			<path class="st0" d="M105.8,21.5c0.7,0,1.2-0.6,1.2-1.2v-4.5c0-0.7-0.6-1.2-1.2-1.2H88.1c-0.7,0-1.2,0.6-1.2,1.2v27.8
				c0,0.7,0.6,1.2,1.2,1.2h17.7c0.7,0,1.2-0.6,1.2-1.2v-4.5c0-0.7-0.6-1.2-1.2-1.2h-12v-4.7h12c0.7,0,1.2-0.6,1.2-1.2v-4.5
				c0-0.7-0.6-1.2-1.2-1.2h-12v-4.7H105.8z"/>
			<path class="st0" d="M80.9,14.5h-4.5c-0.7,0-1.2,0.6-1.2,1.2v16.1L63.5,15.1c-0.3-0.5-0.8-0.6-1.4-0.6c-0.1,0-0.1,0-0.2,0h-4.5
				c-0.7,0-1.2,0.6-1.2,1.2v27.8c0,0.7,0.6,1.2,1.2,1.2h4.5c0.7,0,1.2-0.6,1.2-1.2V26.8l12.2,17.4c0,0.1,0.1,0.1,0.1,0.2
				c0.2,0.2,0.5,0.4,0.9,0.4c0.1,0,0.1,0,0.2,0h4.3c0.7,0,1.2-0.6,1.2-1.2V15.8C82.1,15.1,81.6,14.5,80.9,14.5z"/>
		</g>
	</g>
	<g>
		<g>
			<g>
				<path class="st1" d="M107.3,113.5H20.7c-1.9,0-3.4-1.5-3.4-3.4V58.3c0-1.9,1.5-3.4,3.4-3.4h86.6c1.9,0,3.4,1.5,3.4,3.4v51.8
					C110.7,112,109.2,113.5,107.3,113.5z"/>
			</g>
		</g>
		<g>
			<path class="st2" d="M51,77.7c0,5.1-4.1,9.3-9.5,9.3h-4.1v7.6c0,0.5-0.4,0.9-0.9,0.9h-4.4c-0.5,0-0.9-0.4-0.9-0.9V69.4
				c0-0.5,0.4-0.9,0.9-0.9h9.3C46.8,68.5,51,72.6,51,77.7z M44.8,77.7c0-2-1.4-3.5-3.3-3.5h-4.1v7h4.1
				C43.4,81.2,44.8,79.7,44.8,77.7z"/>
			<path class="st2" d="M74,76.7v18.4c0,0.3-0.2,0.5-0.5,0.5h-4.8c-0.3,0-0.5-0.2-0.5-0.5v-1.3c-1.3,1.5-3.2,2.4-5.8,2.4
				c-5.1,0-9.2-4.4-9.2-10.2s4.2-10.2,9.2-10.2c2.6,0,4.5,0.9,5.8,2.4v-1.3c0-0.3,0.2-0.5,0.5-0.5h4.8C73.7,76.2,74,76.4,74,76.7z
				 M68.2,85.9c0-2.9-1.9-4.7-4.6-4.7c-2.7,0-4.6,1.8-4.6,4.7s1.9,4.7,4.6,4.7C66.2,90.6,68.2,88.8,68.2,85.9z"/>
			<path class="st2" d="M93.3,76.7l-4.5,11.2l-4.6-11.2c-0.1-0.3-0.4-0.5-0.7-0.5h-4.9c-0.3,0-0.6,0.3-0.4,0.7l7.7,18.7l-2.8,7.1
				c-0.1,0.3,0.1,0.7,0.4,0.7h4.9c0.3,0,0.6-0.2,0.7-0.5l10.3-25.9c0.1-0.3-0.1-0.7-0.4-0.7H94C93.7,76.2,93.4,76.4,93.3,76.7z"/>
		</g>
	</g>
</g>
</svg>
