<?xml version="1.0" encoding="utf-8"?>
<!-- Generator: Adobe Illustrator 27.5.0, SVG Export Plug-In . SVG Version: 6.00 Build 0)  -->
<svg version="1.1" id="圖層_1" xmlns="http://www.w3.org/2000/svg" xmlns:xlink="http://www.w3.org/1999/xlink" x="0px" y="0px"
	 viewBox="0 0 128 128" style="enable-background:new 0 0 128 128;" xml:space="preserve">
<g>
	<g>
		<g>
			<path d="M50.3,14.5h-4.5c-0.7,0-1.2,0.6-1.2,1.2v27.8c0,0.7,0.6,1.2,1.2,1.2h4.5c0.7,0,1.2-0.6,1.2-1.2V15.8
				C51.5,15.1,50.9,14.5,50.3,14.5z"/>
			<path d="M39.5,37.8h-12V15.8c0-0.7-0.6-1.2-1.2-1.2h-4.5c-0.7,0-1.2,0.6-1.2,1.2v27.8c0,0.7,0.6,1.2,1.2,1.2h17.7
				c0.7,0,1.2-0.6,1.2-1.2v-4.5C40.7,38.4,40.2,37.8,39.5,37.8z"/>
			<path d="M105.8,21.5c0.7,0,1.2-0.6,1.2-1.2v-4.5c0-0.7-0.6-1.2-1.2-1.2H88.1c-0.7,0-1.2,0.6-1.2,1.2v27.8c0,0.7,0.6,1.2,1.2,1.2
				h17.7c0.7,0,1.2-0.6,1.2-1.2v-4.5c0-0.7-0.6-1.2-1.2-1.2h-12v-4.7h12c0.7,0,1.2-0.6,1.2-1.2v-4.5c0-0.7-0.6-1.2-1.2-1.2h-12v-4.7
				H105.8z"/>
			<path d="M80.9,14.5h-4.5c-0.7,0-1.2,0.6-1.2,1.2v16.1L63.5,15.1c-0.3-0.5-0.8-0.6-1.4-0.6c-0.1,0-0.1,0-0.2,0h-4.5
				c-0.7,0-1.2,0.6-1.2,1.2v27.8c0,0.7,0.6,1.2,1.2,1.2h4.5c0.7,0,1.2-0.6,1.2-1.2V26.8l12.2,17.4c0,0.1,0.1,0.1,0.1,0.2
				c0.2,0.2,0.5,0.4,0.9,0.4c0.1,0,0.1,0,0.2,0h4.3c0.7,0,1.2-0.6,1.2-1.2V15.8C82.1,15.1,81.6,14.5,80.9,14.5z"/>
		</g>
	</g>
	<g>
		<path d="M107.3,54.9H20.7c-1.9,0-3.4,1.5-3.4,3.4v51.8c0,1.9,1.5,3.4,3.4,3.4h86.6c1.9,0,3.4-1.5,3.4-3.4V58.3
			C110.7,56.4,109.2,54.9,107.3,54.9z M41.5,87.3h-3.7v7.6c0,0.5-0.4,1-1,1h-4.9c-0.5,0-1-0.4-1-1V69.1c0-0.5,0.4-1,1-1h9.6
			c5.5,0,9.8,4.2,9.8,9.6C51.3,83.1,47,87.3,41.5,87.3z M73.7,95.9h-5.3c-0.3,0-0.6-0.3-0.6-0.6v-0.8c-1.4,1.3-3.2,1.9-5.4,1.9
			c-5.4,0-9.6-4.6-9.6-10.5s4.2-10.5,9.6-10.5c2.2,0,4.1,0.6,5.4,1.9v-0.8c0-0.3,0.3-0.6,0.6-0.6h5.3c0.3,0,0.6,0.3,0.6,0.6v18.9
			C74.3,95.6,74,95.9,73.7,95.9z M88.6,103.6h-5.5c-0.4,0-0.7-0.4-0.5-0.8l2.9-7.3l-7.8-18.9c-0.2-0.4,0.1-0.8,0.5-0.8h5.5
			c0.3,0,0.7,0.2,0.8,0.5l4.4,10.7l4.2-10.7c0.1-0.3,0.4-0.5,0.8-0.5h5.5c0.4,0,0.7,0.4,0.5,0.8l-10.5,26.4
			C89.2,103.4,88.9,103.6,88.6,103.6z"/>
		<path d="M63.6,81.5c-2.6,0-4.3,1.8-4.3,4.4s1.7,4.4,4.3,4.4s4.3-1.8,4.3-4.4S66.1,81.5,63.6,81.5z"/>
		<path d="M41.5,74.6h-3.7v6.3h3.7c1.7,0,3-1.4,3-3.2C44.5,75.9,43.2,74.6,41.5,74.6z"/>
	</g>
</g>
</svg>
