<svg width="160" height="160" viewBox="0 0 160 160" fill="none" xmlns="http://www.w3.org/2000/svg">
<g clip-path="url(#clip0_416_533)">
<path d="M140 66.5425C140.092 99.5431 113.448 125.937 79.9771 126C47.1277 126.063 20.0418 99.18 20 66.4876C19.9583 32.8581 46.3848 6.14358 79.8352 6.00005C112.981 5.86073 139.904 32.9552 140 66.5425ZM24.4365 65.9473C24.6076 97.0987 49.4773 121.829 80.4821 121.673C110.974 121.525 135.668 96.6048 135.534 66.1119C135.397 35.1293 110.314 10.2217 79.3886 10.4032C49.2394 10.5679 24.2653 35.7964 24.4365 65.9473Z" fill="#020202"/>
<path d="M58.0454 63.2075C57.8785 61.9748 57.8743 60.6745 57.5029 59.522C56.9589 57.6587 56.2158 55.861 55.2867 54.1605C54.9195 53.5273 53.5088 52.9996 52.8369 53.2233C52.2693 53.4091 51.8645 54.7389 51.7768 55.6001C51.6892 56.4613 52.0273 57.3943 52.2651 58.2724C54.3519 66.0993 53.9345 73.656 50.2034 80.9721C48.6467 84.0202 47.4615 87.2539 46.0967 90.4033C45.8046 91.0787 45.4749 91.7458 45.0492 92.6534C41.6019 88.7864 39.486 84.4845 38.0085 79.8787C29.3778 53.0165 47.5783 24.9215 75.3862 22.0972C86.5913 20.9318 97.8158 24.114 106.79 31.0004C115.764 37.8868 121.818 47.9635 123.728 59.1927C127.667 82.4455 112.042 104.719 88.7079 109.059C76.5381 111.33 65.2321 109.342 55.0655 101.966C51.3094 99.2518 48.2795 95.7816 49.6776 90.8086C52.6533 80.2545 57.0438 74.7241 70.3113 76.341C78.846 77.3795 85.9159 81.8038 92.848 86.57C95.5024 88.3938 98.5323 89.7067 101.504 90.9859C102.685 91.4067 103.969 91.4363 105.168 91.0703C106.182 90.779 107.572 89.9262 107.768 89.0777C107.867 88.4512 107.832 87.8107 107.667 87.1986C107.503 86.5866 107.211 86.0169 106.812 85.5273C105.607 84.2672 104.14 83.2927 102.518 82.6735C92.3389 78.7558 82.0679 75.0998 71.2169 73.6392C70.8702 73.6327 70.5293 73.5476 70.2194 73.3901C69.6435 72.9679 68.646 72.3642 68.7128 72.0012C68.8067 71.6251 68.9819 71.2747 69.2259 70.9754C69.4698 70.6761 69.7764 70.4353 70.1235 70.2703C73.5624 69.0038 77.1391 69.1262 80.5822 70.0803C86.5962 71.7394 92.51 73.7489 98.5073 75.4671C101.241 76.2675 104.031 76.8532 106.854 77.2191C108.568 77.407 110.302 77.2331 111.946 76.7083C112.751 76.4508 113.661 75.1632 113.736 74.2724C113.811 73.3816 113.139 71.9716 112.384 71.5495C110.83 70.6417 109.109 70.0669 107.326 69.8608C101.934 69.4386 96.5082 69.3542 91.1077 68.9447C88.7578 68.7265 86.433 68.2883 84.163 67.636C83.4535 67.4418 82.4603 66.5004 82.4644 65.9093C82.4644 65.2381 83.3492 64.1363 84.0211 63.9801C87.0991 63.1854 90.2307 62.621 93.3906 62.2914C97.7435 61.9283 102.155 62.1057 106.499 61.7679C108.149 61.591 109.727 60.9972 111.09 60.0413C111.862 59.5093 112.522 57.9051 112.292 57.0397C112.034 56.0645 110.786 54.8107 109.847 54.6925C108.073 54.5249 106.284 54.7378 104.596 55.3173C102.702 55.9336 101.028 57.2086 99.1709 57.9136C96.92 58.7771 94.5991 59.441 92.2345 59.8977C91.3414 60.0624 90.2813 59.3067 89.3131 58.969C89.7764 58.1626 90.0435 57.0228 90.7363 56.6091C94.6009 54.3125 98.524 52.1004 102.518 50.0487C104.605 48.9764 106.963 48.4402 109.07 47.4017C111.433 46.2407 112.225 44.4466 111.65 42.4793C111.12 40.6471 109.538 39.7225 106.959 39.9083C102.756 40.2122 99.4964 42.5341 96.7002 45.3964C92.7145 49.5041 89.0251 53.8988 85.1062 58.0613C82.8897 60.4691 80.5271 62.7348 78.0322 64.8455C77.0639 65.6476 75.5031 65.9558 74.1842 66.036C72.1726 66.1584 71.3505 64.6471 72.5733 63.0006C73.6715 61.5556 74.9785 60.2862 76.4504 59.2349C83.4368 54.169 89.1503 47.9083 94.0458 40.8539C95.0261 39.4296 95.6426 37.7821 95.8404 36.0582C96.095 33.445 93.4365 31.9167 91.308 33.4281C89.9548 34.4248 88.8349 35.7104 88.0277 37.1938C85.5236 41.7194 83.2574 46.3801 80.7867 50.9268C80.0453 52.1945 79.1306 53.35 78.0698 54.359C77.619 54.8107 76.7551 54.8444 76.0832 55.0682C75.9455 54.4265 75.574 53.7257 75.7159 53.1516C76.4755 50.0993 77.3477 47.0766 78.22 44.0497C78.8711 41.7616 79.6807 39.5115 80.1857 37.1938C80.4152 36.0301 80.3521 34.8266 80.0021 33.694C79.7809 32.989 78.9003 32.1278 78.22 32.0307C77.5397 31.9336 76.3169 32.4529 75.9788 33.0608C75.2599 34.3237 74.8146 35.7267 74.6725 37.1769C74.1842 43.7584 73.9046 50.3611 71.6635 56.664C69.8438 61.7806 67.6319 66.6861 63.8257 70.6545C62.8167 71.7187 61.6973 72.6698 60.4869 73.4914C59.961 73.8418 59.0971 73.6687 58.4002 73.732C58.3459 73.0819 58.0788 72.3558 58.2833 71.8027C58.789 70.3552 59.4304 68.9599 60.1989 67.636C62.2481 64.2122 64.5686 60.9531 66.4591 57.4492C69.1051 52.5732 70.7787 47.389 69.6185 41.6898C69.4245 40.7357 69.1177 39.8087 68.7045 38.9289C67.9574 37.35 66.9433 35.9146 64.9483 36.2312C62.8616 36.5563 61.4593 37.9832 61.3091 40.0307C61.1429 41.9058 61.3909 43.7949 62.0353 45.5611C64.2388 51.0914 63.4042 56.2376 60.562 61.2571C60.0904 62.1014 59.3642 62.7769 58.7549 63.5326L58.0454 63.2075Z" fill="#020202"/>
</g>
<path d="M38.16 140.02H40.68V141.1C40.96 140.726 41.3134 140.426 41.74 140.2C42.18 139.973 42.6067 139.86 43.02 139.86H44.28C45.08 139.86 45.7867 140.026 46.4 140.36C47.0134 140.68 47.4867 141.133 47.82 141.72C48.1534 142.306 48.32 142.98 48.32 143.74V145.98C48.32 146.806 48.1534 147.54 47.82 148.18C47.4867 148.806 47.02 149.293 46.42 149.64C45.82 149.986 45.1267 150.16 44.34 150.16H43.04C42.6667 150.16 42.28 150.073 41.88 149.9C41.4934 149.726 41.16 149.493 40.88 149.2V154H38.16V140.02ZM43.98 147.82C44.4734 147.82 44.8667 147.633 45.16 147.26C45.4534 146.886 45.6 146.393 45.6 145.78V143.94C45.6 143.42 45.4467 143 45.14 142.68C44.8467 142.36 44.4534 142.2 43.96 142.2H42.74C42.3534 142.2 41.9867 142.36 41.64 142.68C41.2934 142.986 41.04 143.386 40.88 143.88V145.86C40.9467 146.446 41.1467 146.92 41.48 147.28C41.8267 147.64 42.2467 147.82 42.74 147.82H43.98Z" fill="#020202"/>
<path d="M54.0903 150.16C53.2503 150.16 52.5037 150 51.8503 149.68C51.2103 149.346 50.7103 148.88 50.3503 148.28C50.0037 147.68 49.8303 146.986 49.8303 146.2V143.86C49.8303 143.073 50.0103 142.38 50.3703 141.78C50.7303 141.166 51.2303 140.693 51.8703 140.36C52.5237 140.026 53.2703 139.86 54.1103 139.86H55.9103C56.7503 139.86 57.4903 140.026 58.1303 140.36C58.7837 140.693 59.2903 141.166 59.6503 141.78C60.0103 142.38 60.1903 143.073 60.1903 143.86V146.2C60.1903 146.986 60.0103 147.68 59.6503 148.28C59.2903 148.88 58.7837 149.346 58.1303 149.68C57.4903 150 56.7437 150.16 55.8903 150.16H54.0903ZM55.8503 147.82C56.3437 147.82 56.737 147.653 57.0303 147.32C57.3237 146.973 57.4703 146.526 57.4703 145.98V144.04C57.4703 143.493 57.3237 143.053 57.0303 142.72C56.737 142.373 56.3503 142.2 55.8703 142.2H54.1503C53.6703 142.2 53.2837 142.373 52.9903 142.72C52.697 143.053 52.5503 143.493 52.5503 144.04V145.98C52.5503 146.526 52.697 146.973 52.9903 147.32C53.2837 147.653 53.6637 147.82 54.1303 147.82H55.8503Z" fill="#020202"/>
<path d="M63.8253 139.08C63.3053 139.08 62.8853 138.933 62.5653 138.64C62.2587 138.333 62.1053 137.933 62.1053 137.44C62.1053 136.946 62.2587 136.553 62.5653 136.26C62.8853 135.953 63.3053 135.8 63.8253 135.8C64.3453 135.8 64.7587 135.953 65.0653 136.26C65.3853 136.553 65.5453 136.946 65.5453 137.44C65.5453 137.933 65.3853 138.333 65.0653 138.64C64.7587 138.933 64.3453 139.08 63.8253 139.08ZM62.4653 140.02H65.1853V150H62.4653V140.02Z" fill="#020202"/>
<path d="M67.8671 140.02H70.3871V141.22C70.6804 140.806 71.0604 140.48 71.5271 140.24C71.9937 139.986 72.4604 139.86 72.9271 139.86H74.1271C75.1937 139.86 76.0471 140.193 76.6871 140.86C77.3404 141.526 77.6671 142.406 77.6671 143.5V150H74.9471V143.6C74.9471 143.186 74.8337 142.853 74.6071 142.6C74.3937 142.346 74.1137 142.22 73.7671 142.22H72.5671C72.1004 142.22 71.6804 142.393 71.3071 142.74C70.9471 143.073 70.7071 143.513 70.5871 144.06V150H67.8671V140.02Z" fill="#020202"/>
<path d="M84.2193 150C83.0459 150 82.1859 149.733 81.6393 149.2C81.0926 148.666 80.8193 147.84 80.8193 146.72V142.34H79.0593V140.02H80.8993V137H83.5393V140.02H86.1393V142.34H83.5393V146.6C83.5393 146.973 83.6059 147.246 83.7393 147.42C83.8859 147.593 84.1126 147.68 84.4193 147.68H86.1393V150H84.2193Z" fill="#020202"/>
<path d="M93.8241 140.02H96.3441V141.1C96.6241 140.726 96.9774 140.426 97.4041 140.2C97.8441 139.973 98.2708 139.86 98.6841 139.86H99.9441C100.744 139.86 101.451 140.026 102.064 140.36C102.677 140.68 103.151 141.133 103.484 141.72C103.817 142.306 103.984 142.98 103.984 143.74V145.98C103.984 146.806 103.817 147.54 103.484 148.18C103.151 148.806 102.684 149.293 102.084 149.64C101.484 149.986 100.791 150.16 100.004 150.16H98.7041C98.3308 150.16 97.9441 150.073 97.5441 149.9C97.1574 149.726 96.8241 149.493 96.5441 149.2V154H93.8241V140.02ZM99.6441 147.82C100.137 147.82 100.531 147.633 100.824 147.26C101.117 146.886 101.264 146.393 101.264 145.78V143.94C101.264 143.42 101.111 143 100.804 142.68C100.511 142.36 100.117 142.2 99.6241 142.2H98.4041C98.0174 142.2 97.6508 142.36 97.3041 142.68C96.9574 142.986 96.7041 143.386 96.5441 143.88V145.86C96.6108 146.446 96.8108 146.92 97.1441 147.28C97.4908 147.64 97.9108 147.82 98.4041 147.82H99.6441Z" fill="#020202"/>
<path d="M105.894 140.02H108.414V141.3C108.668 140.913 109.028 140.6 109.494 140.36C109.974 140.106 110.474 139.98 110.994 139.98H112.354V142.34H110.994C110.288 142.34 109.714 142.553 109.274 142.98C108.834 143.406 108.614 143.953 108.614 144.62V150H105.894V140.02Z" fill="#020202"/>
<path d="M117.098 150.16C116.258 150.16 115.511 150 114.858 149.68C114.218 149.346 113.718 148.88 113.358 148.28C113.011 147.68 112.838 146.986 112.838 146.2V143.86C112.838 143.073 113.018 142.38 113.378 141.78C113.738 141.166 114.238 140.693 114.878 140.36C115.531 140.026 116.278 139.86 117.118 139.86H118.918C119.758 139.86 120.498 140.026 121.138 140.36C121.791 140.693 122.298 141.166 122.658 141.78C123.018 142.38 123.198 143.073 123.198 143.86V146.2C123.198 146.986 123.018 147.68 122.658 148.28C122.298 148.88 121.791 149.346 121.138 149.68C120.498 150 119.751 150.16 118.898 150.16H117.098ZM118.858 147.82C119.351 147.82 119.745 147.653 120.038 147.32C120.331 146.973 120.478 146.526 120.478 145.98V144.04C120.478 143.493 120.331 143.053 120.038 142.72C119.745 142.373 119.358 142.2 118.878 142.2H117.158C116.678 142.2 116.291 142.373 115.998 142.72C115.705 143.053 115.558 143.493 115.558 144.04V145.98C115.558 146.526 115.705 146.973 115.998 147.32C116.291 147.653 116.671 147.82 117.138 147.82H118.858Z" fill="#020202"/>
<defs>
<clipPath id="clip0_416_533">
<rect width="120" height="120" fill="white" transform="translate(20 6)"/>
</clipPath>
</defs>
</svg>
