<svg viewBox="0 0 160 160" fill="none" xmlns="http://www.w3.org/2000/svg">
<g clip-path="url(#clip0_403_53)">
<path d="M160 80.7234C160.122 124.724 124.598 159.916 79.9695 160C36.1702 160.085 0.0557122 124.24 6.58197e-05 80.6503C-0.0555806 35.8109 35.1797 0.191514 79.7803 0.000133288C123.975 -0.185619 159.872 35.9403 160 80.7234ZM5.91528 79.9298C6.14343 121.465 39.3031 154.439 80.6428 154.231C121.298 154.034 154.224 120.806 154.046 80.1493C153.862 38.8392 120.419 5.62898 79.1849 5.87102C38.9859 6.09055 5.68713 39.7285 5.91528 79.9298Z" fill="#F7C324"/>
<path d="M50.7272 76.2765C50.5046 74.6329 50.4991 72.8992 50.0038 71.3625C49.2785 68.8781 48.2877 66.4811 47.049 64.2139C46.5593 63.3696 44.6784 62.666 43.7825 62.9643C43.0258 63.212 42.486 64.985 42.3691 66.1333C42.2523 67.2816 42.703 68.5256 43.0202 69.6964C45.8025 80.1323 45.246 90.2079 40.2713 99.9627C38.1957 104.027 36.6153 108.338 34.7957 112.538C34.4061 113.438 33.9665 114.328 33.3989 115.538C28.8025 110.382 25.9813 104.646 24.0114 98.5048C12.5037 62.6885 36.7711 25.2285 73.8483 21.4628C88.7884 19.9089 103.754 24.1519 115.72 33.3337C127.685 42.5156 135.757 55.9512 138.303 70.9235C143.556 101.927 122.722 131.625 91.6106 137.411C75.3841 140.44 60.3095 137.789 46.7541 127.955C41.7459 124.336 37.706 119.709 39.5701 113.078C43.5377 99.0058 49.3917 91.632 67.0817 93.7879C78.4614 95.1726 87.8879 101.072 97.1307 107.427C100.67 109.858 104.71 111.609 108.672 113.314C110.247 113.875 111.958 113.915 113.558 113.427C114.91 113.039 116.763 111.901 117.024 110.77C117.155 109.935 117.11 109.081 116.89 108.265C116.67 107.449 116.282 106.689 115.75 106.036C114.142 104.356 112.187 103.057 110.024 102.231C96.4518 97.0076 82.7573 92.133 68.2892 90.1854C67.8269 90.1768 67.3724 90.0633 66.9593 89.8533C66.1913 89.2904 64.8614 88.4855 64.9504 88.0014C65.0756 87.4999 65.3093 87.0328 65.6345 86.6337C65.9598 86.2346 66.3685 85.9135 66.8313 85.6936C71.4165 84.0049 76.1854 84.1682 80.7763 85.4403C88.7949 87.6524 96.68 90.3317 104.676 92.6227C108.321 93.6899 112.042 94.4708 115.806 94.9587C118.091 95.2092 120.403 94.9773 122.594 94.2776C123.668 93.9342 124.882 92.2174 124.982 91.0297C125.082 89.842 124.186 87.962 123.179 87.3991C121.107 86.1888 118.811 85.4224 116.434 85.1476C109.245 84.5847 102.011 84.4721 94.8103 83.9261C91.6771 83.6351 88.5773 83.051 85.5507 82.1812C84.6047 81.9222 83.2803 80.667 83.2859 79.879C83.2859 78.984 84.4656 77.5149 85.3615 77.3066C89.4655 76.2471 93.641 75.4945 97.8541 75.0551C103.658 74.571 109.54 74.8074 115.333 74.3571C117.532 74.1211 119.637 73.3294 121.454 72.0549C122.483 71.3456 123.362 69.2067 123.056 68.0528C122.711 66.7525 121.048 65.0807 119.795 64.9231C117.43 64.6997 115.045 64.9836 112.795 65.7562C110.269 66.578 108.037 68.2779 105.561 69.2179C102.56 70.3693 99.4655 71.2545 96.3127 71.8635C95.1219 72.083 93.7085 71.0755 92.4175 70.6252C93.0351 69.55 93.3913 68.0303 94.315 67.4786C99.4679 64.4165 104.699 61.467 110.024 58.7314C112.806 57.3017 115.95 56.5868 118.76 55.2021C121.91 53.6542 122.967 51.2619 122.199 48.6389C121.493 46.196 119.384 44.9632 115.945 45.2109C110.341 45.6162 105.995 48.712 102.267 52.5284C96.9526 58.0053 92.0335 63.8649 86.8083 69.4149C83.853 72.6253 80.7029 75.6463 77.3763 78.4605C76.0853 79.53 74.0041 79.9409 72.2457 80.0478C69.5635 80.2111 68.4673 78.196 70.0977 76.0007C71.5619 74.074 73.3047 72.3814 75.2673 70.9798C84.5825 64.2252 92.2004 55.8776 98.7278 46.4718C100.035 44.5727 100.857 42.3759 101.121 40.0774C101.46 36.5931 97.9153 34.5555 95.0774 36.5706C93.2731 37.8996 91.7799 39.6137 90.7036 41.5916C87.3648 47.6257 84.3432 53.8399 81.0489 59.9022C80.0604 61.5925 78.8409 63.1332 77.4263 64.4785C76.8254 65.0807 75.6735 65.1258 74.7776 65.4241C74.5939 64.5685 74.0987 63.6341 74.2879 62.8686C75.3006 58.7989 76.4637 54.7687 77.6267 50.7328C78.4947 47.682 79.5743 44.6818 80.2476 41.5916C80.5537 40.0399 80.4695 38.4354 80.0028 36.9252C79.7078 35.9852 78.5337 34.8369 77.6267 34.7075C76.7196 34.578 75.0892 35.2704 74.6385 36.0809C73.6799 37.7647 73.0862 39.6355 72.8967 41.569C72.2457 50.3444 71.8728 59.1479 68.8846 67.5518C66.4584 74.374 63.5092 80.9147 58.4342 86.2058C57.089 87.6248 55.5965 88.893 53.9825 89.9884C53.2814 90.4556 52.1295 90.2248 51.2002 90.3092C51.1279 89.4424 50.7717 88.4742 51.0444 87.7368C51.7186 85.8068 52.5739 83.9464 53.5986 82.1812C56.3308 77.6162 59.4247 73.2707 61.9455 68.5988C65.4735 62.0974 67.7049 55.1852 66.1579 47.5863C65.8994 46.3141 65.4902 45.0781 64.9393 43.905C63.9432 41.7998 62.591 39.886 59.9311 40.3082C57.1488 40.7416 55.2791 42.6441 55.0788 45.3741C54.8572 47.8743 55.1879 50.393 56.047 52.7479C58.9851 60.1217 57.8722 66.9833 54.0827 73.676C53.4539 74.8018 52.4856 75.7024 51.6732 76.7099L50.7272 76.2765Z" fill="#F7C324"/>
</g>
<defs>
<clipPath id="clip0_403_53">
<rect width="160" height="160" fill="white"/>
</clipPath>
</defs>
</svg>
