<svg width="146" height="40" viewBox="0 0 146 40" fill="none" xmlns="http://www.w3.org/2000/svg">
<rect width="145.038" height="40" rx="20" fill="#F7C324" fill-opacity="0.08"/>
<g clip-path="url(#clip0_415_505)">
<path d="M36 20.1086C36.0184 26.7087 30.6897 31.9874 23.9954 32.0001C17.4255 32.0128 12.0084 26.6361 12 20.0976C11.9917 13.3717 17.277 8.02881 23.967 8.00011C30.5962 7.97224 35.9808 13.3911 36 20.1086ZM12.8873 19.9896C12.9215 26.2198 17.8955 31.1659 24.0964 31.1347C30.1947 31.1051 35.1336 26.1211 35.1069 20.0225C35.0793 13.826 30.0628 8.84443 23.8777 8.88074C17.8479 8.91367 12.8531 13.9594 12.8873 19.9896Z" fill="#F7C324"/>
<path d="M19.6091 19.4416C19.5757 19.1951 19.5748 18.935 19.5005 18.7045C19.3918 18.3318 19.2431 17.9723 19.0573 17.6322C18.9839 17.5056 18.7017 17.4 18.5674 17.4448C18.4538 17.4819 18.3729 17.7479 18.3553 17.9201C18.3378 18.0924 18.4054 18.279 18.453 18.4546C18.8704 20.02 18.7869 21.5313 18.0407 22.9945C17.7293 23.6041 17.4923 24.2509 17.2193 24.8808C17.1609 25.0158 17.095 25.1492 17.0098 25.3308C16.3204 24.5574 15.8972 23.697 15.6017 22.7758C13.8755 17.4034 17.5156 11.7844 23.0772 11.2195C25.3182 10.9865 27.5631 11.6229 29.358 13.0002C31.1528 14.3775 32.3636 16.3928 32.7455 18.6386C33.5334 23.2892 30.4083 27.7439 25.7416 28.6118C23.3076 29.0661 21.0464 28.6684 19.0131 27.1934C18.2619 26.6505 17.6559 25.9564 17.9355 24.9618C18.5306 22.851 19.4087 21.7449 22.0622 22.0683C23.7692 22.276 25.1832 23.1609 26.5696 24.1141C27.1005 24.4789 27.7064 24.7414 28.3007 24.9973C28.5371 25.0814 28.7937 25.0874 29.0336 25.0142C29.2364 24.9559 29.5144 24.7853 29.5536 24.6156C29.5733 24.4903 29.5664 24.3622 29.5335 24.2398C29.5005 24.1174 29.4422 24.0035 29.3625 23.9056C29.1213 23.6535 28.828 23.4586 28.5036 23.3348C26.4678 22.5513 24.4136 21.8201 22.2434 21.5279C22.174 21.5266 22.1058 21.5096 22.0439 21.4781C21.9287 21.3937 21.7292 21.2729 21.7425 21.2003C21.7613 21.1251 21.7964 21.055 21.8452 20.9952C21.8939 20.9353 21.9553 20.8872 22.0247 20.8542C22.7125 20.6009 23.4278 20.6253 24.1164 20.8162C25.3192 21.148 26.502 21.5499 27.7014 21.8935C28.2482 22.0536 28.8063 22.1707 29.3708 22.2439C29.7136 22.2815 30.0604 22.2467 30.3892 22.1418C30.5502 22.0903 30.7322 21.8327 30.7472 21.6546C30.7623 21.4764 30.6279 21.1944 30.4768 21.11C30.166 20.9284 29.8217 20.8135 29.4651 20.7723C28.3867 20.6878 27.3016 20.6709 26.2215 20.589C25.7515 20.5454 25.2866 20.4578 24.8326 20.3273C24.6907 20.2885 24.492 20.1002 24.4929 19.982C24.4929 19.8477 24.6698 19.6273 24.8042 19.5961C25.4198 19.4372 26.0461 19.3243 26.6781 19.2584C27.5487 19.1858 28.431 19.2212 29.2999 19.1537C29.6297 19.1183 29.9455 18.9995 30.218 18.8084C30.3725 18.702 30.5043 18.3811 30.4584 18.208C30.4067 18.013 30.1571 17.7622 29.9693 17.7386C29.6145 17.7051 29.2567 17.7477 28.9193 17.8636C28.5403 17.9868 28.2056 18.2418 27.8341 18.3828C27.384 18.5555 26.9198 18.6883 26.4469 18.7796C26.2683 18.8126 26.0562 18.6614 25.8626 18.5939C25.9552 18.4326 26.0087 18.2047 26.1472 18.1219C26.9202 17.6626 27.7048 17.2202 28.5036 16.8098C28.9209 16.5954 29.3925 16.4881 29.814 16.2804C30.2865 16.0482 30.4451 15.6894 30.3299 15.296C30.2239 14.9295 29.9075 14.7446 29.3917 14.7818C28.5512 14.8425 27.8993 15.3069 27.34 15.8794C26.5429 16.7009 25.805 17.5799 25.0212 18.4124C24.5779 18.8939 24.1054 19.3471 23.6064 19.7692C23.4128 19.9296 23.1006 19.9913 22.8368 20.0073C22.4345 20.0318 22.2701 19.7295 22.5146 19.4002C22.7343 19.1112 22.9957 18.8573 23.2901 18.6471C24.6873 17.6339 25.83 16.3818 26.8091 14.9709C27.0052 14.686 27.1285 14.3565 27.1681 14.0117C27.219 13.4891 26.6873 13.1834 26.2616 13.4857C25.9909 13.6851 25.767 13.9422 25.6055 14.2389C25.1047 15.144 24.6515 16.0761 24.1573 16.9854C24.009 17.239 23.8261 17.4701 23.6139 17.6719C23.5238 17.7622 23.351 17.769 23.2166 17.8137C23.1891 17.6854 23.1148 17.5452 23.1432 17.4304C23.2951 16.82 23.4695 16.2154 23.644 15.61C23.7742 15.1524 23.9361 14.7024 24.0371 14.2389C24.083 14.0061 24.0704 13.7654 24.0004 13.5389C23.9562 13.3979 23.78 13.2257 23.644 13.2062C23.5079 13.1868 23.2634 13.2907 23.1957 13.4123C23.052 13.6648 22.9629 13.9454 22.9345 14.2355C22.8368 15.5518 22.7809 16.8723 22.3327 18.1329C21.9687 19.1562 21.5264 20.1373 20.7651 20.931C20.5633 21.1438 20.3394 21.3341 20.0974 21.4984C19.9922 21.5685 19.8194 21.5338 19.68 21.5465C19.6692 21.4165 19.6157 21.2713 19.6566 21.1606C19.7578 20.8711 19.8861 20.5921 20.0398 20.3273C20.4496 19.6425 20.9137 18.9907 21.2918 18.2899C21.821 17.3147 22.1557 16.2779 21.9237 15.1381C21.8849 14.9472 21.8235 14.7618 21.7409 14.5859C21.5915 14.2701 21.3886 13.983 20.9896 14.0463C20.5723 14.1114 20.2918 14.3967 20.2618 14.8062C20.2285 15.1813 20.2782 15.5591 20.407 15.9123C20.8477 17.0184 20.6808 18.0476 20.1124 19.0515C20.0181 19.2204 19.8728 19.3555 19.751 19.5066L19.6091 19.4416Z" fill="#F7C324"/>
</g>
<path d="M44 15.1199H46.52V16.1999C46.8 15.8266 47.1533 15.5266 47.58 15.2999C48.02 15.0732 48.4467 14.9599 48.86 14.9599H50.12C50.92 14.9599 51.6267 15.1266 52.24 15.4599C52.8533 15.7799 53.3267 16.2332 53.66 16.8199C53.9933 17.4066 54.16 18.0799 54.16 18.8399V21.0799C54.16 21.9066 53.9933 22.6399 53.66 23.2799C53.3267 23.9066 52.86 24.3932 52.26 24.7399C51.66 25.0866 50.9667 25.2599 50.18 25.2599H48.88C48.5067 25.2599 48.12 25.1732 47.72 24.9999C47.3333 24.8266 47 24.5932 46.72 24.2999V29.0999H44V15.1199ZM49.82 22.9199C50.3133 22.9199 50.7067 22.7332 51 22.3599C51.2933 21.9866 51.44 21.4932 51.44 20.8799V19.0399C51.44 18.5199 51.2867 18.0999 50.98 17.7799C50.6867 17.4599 50.2933 17.2999 49.8 17.2999H48.58C48.1933 17.2999 47.8267 17.4599 47.48 17.7799C47.1333 18.0866 46.88 18.4866 46.72 18.9799V20.9599C46.7867 21.5466 46.9867 22.0199 47.32 22.3799C47.6667 22.7399 48.0867 22.9199 48.58 22.9199H49.82Z" fill="#F7C324"/>
<path d="M59.9303 25.2599C59.0903 25.2599 58.3436 25.0999 57.6903 24.7799C57.0503 24.4466 56.5503 23.9799 56.1903 23.3799C55.8436 22.7799 55.6703 22.0866 55.6703 21.2999V18.9599C55.6703 18.1732 55.8503 17.4799 56.2103 16.8799C56.5703 16.2666 57.0703 15.7932 57.7103 15.4599C58.3636 15.1266 59.1103 14.9599 59.9503 14.9599H61.7503C62.5903 14.9599 63.3303 15.1266 63.9703 15.4599C64.6236 15.7932 65.1303 16.2666 65.4903 16.8799C65.8503 17.4799 66.0303 18.1732 66.0303 18.9599V21.2999C66.0303 22.0866 65.8503 22.7799 65.4903 23.3799C65.1303 23.9799 64.6236 24.4466 63.9703 24.7799C63.3303 25.0999 62.5836 25.2599 61.7303 25.2599H59.9303ZM61.6903 22.9199C62.1836 22.9199 62.577 22.7532 62.8703 22.4199C63.1636 22.0732 63.3103 21.6266 63.3103 21.0799V19.1399C63.3103 18.5932 63.1636 18.1532 62.8703 17.8199C62.577 17.4732 62.1903 17.2999 61.7103 17.2999H59.9903C59.5103 17.2999 59.1236 17.4732 58.8303 17.8199C58.537 18.1532 58.3903 18.5932 58.3903 19.1399V21.0799C58.3903 21.6266 58.537 22.0732 58.8303 22.4199C59.1236 22.7532 59.5036 22.9199 59.9703 22.9199H61.6903Z" fill="#F7C324"/>
<path d="M69.6653 14.1799C69.1453 14.1799 68.7253 14.0332 68.4053 13.7399C68.0986 13.4332 67.9453 13.0332 67.9453 12.5399C67.9453 12.0466 68.0986 11.6532 68.4053 11.3599C68.7253 11.0532 69.1453 10.8999 69.6653 10.8999C70.1853 10.8999 70.5986 11.0532 70.9053 11.3599C71.2253 11.6532 71.3853 12.0466 71.3853 12.5399C71.3853 13.0332 71.2253 13.4332 70.9053 13.7399C70.5986 14.0332 70.1853 14.1799 69.6653 14.1799ZM68.3053 15.1199H71.0253V25.0999H68.3053V15.1199Z" fill="#F7C324"/>
<path d="M73.707 15.1199H76.227V16.3199C76.5204 15.9066 76.9004 15.5799 77.367 15.3399C77.8337 15.0866 78.3004 14.9599 78.767 14.9599H79.967C81.0337 14.9599 81.887 15.2932 82.527 15.9599C83.1804 16.6266 83.507 17.5066 83.507 18.5999V25.0999H80.787V18.6999C80.787 18.2866 80.6737 17.9532 80.447 17.6999C80.2337 17.4466 79.9537 17.3199 79.607 17.3199H78.407C77.9404 17.3199 77.5204 17.4932 77.147 17.8399C76.787 18.1732 76.547 18.6132 76.427 19.1599V25.0999H73.707V15.1199Z" fill="#F7C324"/>
<path d="M90.0592 25.0999C88.8859 25.0999 88.0259 24.8332 87.4792 24.2999C86.9326 23.7666 86.6592 22.9399 86.6592 21.8199V17.4399H84.8992V15.1199H86.7392V12.0999H89.3792V15.1199H91.9792V17.4399H89.3792V21.6999C89.3792 22.0732 89.4459 22.3466 89.5792 22.5199C89.7259 22.6932 89.9526 22.7799 90.2592 22.7799H91.9792V25.0999H90.0592Z" fill="#F7C324"/>
<path d="M99.6641 15.1199H102.184V16.1999C102.464 15.8266 102.817 15.5266 103.244 15.2999C103.684 15.0732 104.111 14.9599 104.524 14.9599H105.784C106.584 14.9599 107.291 15.1266 107.904 15.4599C108.517 15.7799 108.991 16.2332 109.324 16.8199C109.657 17.4066 109.824 18.0799 109.824 18.8399V21.0799C109.824 21.9066 109.657 22.6399 109.324 23.2799C108.991 23.9066 108.524 24.3932 107.924 24.7399C107.324 25.0866 106.631 25.2599 105.844 25.2599H104.544C104.171 25.2599 103.784 25.1732 103.384 24.9999C102.997 24.8266 102.664 24.5932 102.384 24.2999V29.0999H99.6641V15.1199ZM105.484 22.9199C105.977 22.9199 106.371 22.7332 106.664 22.3599C106.957 21.9866 107.104 21.4932 107.104 20.8799V19.0399C107.104 18.5199 106.951 18.0999 106.644 17.7799C106.351 17.4599 105.957 17.2999 105.464 17.2999H104.244C103.857 17.2999 103.491 17.4599 103.144 17.7799C102.797 18.0866 102.544 18.4866 102.384 18.9799V20.9599C102.451 21.5466 102.651 22.0199 102.984 22.3799C103.331 22.7399 103.751 22.9199 104.244 22.9199H105.484Z" fill="#F7C324"/>
<path d="M111.734 15.1199H114.254V16.3999C114.508 16.0132 114.868 15.6999 115.334 15.4599C115.814 15.2066 116.314 15.0799 116.834 15.0799H118.194V17.4399H116.834C116.128 17.4399 115.554 17.6532 115.114 18.0799C114.674 18.5066 114.454 19.0532 114.454 19.7199V25.0999H111.734V15.1199Z" fill="#F7C324"/>
<path d="M122.938 25.2599C122.098 25.2599 121.351 25.0999 120.698 24.7799C120.058 24.4466 119.558 23.9799 119.198 23.3799C118.851 22.7799 118.678 22.0866 118.678 21.2999V18.9599C118.678 18.1732 118.858 17.4799 119.218 16.8799C119.578 16.2666 120.078 15.7932 120.718 15.4599C121.371 15.1266 122.118 14.9599 122.958 14.9599H124.758C125.598 14.9599 126.338 15.1266 126.978 15.4599C127.631 15.7932 128.138 16.2666 128.498 16.8799C128.858 17.4799 129.038 18.1732 129.038 18.9599V21.2999C129.038 22.0866 128.858 22.7799 128.498 23.3799C128.138 23.9799 127.631 24.4466 126.978 24.7799C126.338 25.0999 125.591 25.2599 124.738 25.2599H122.938ZM124.698 22.9199C125.191 22.9199 125.585 22.7532 125.878 22.4199C126.171 22.0732 126.318 21.6266 126.318 21.0799V19.1399C126.318 18.5932 126.171 18.1532 125.878 17.8199C125.585 17.4732 125.198 17.2999 124.718 17.2999H122.998C122.518 17.2999 122.131 17.4732 121.838 17.8199C121.545 18.1532 121.398 18.5932 121.398 19.1399V21.0799C121.398 21.6266 121.545 22.0732 121.838 22.4199C122.131 22.7532 122.511 22.9199 122.978 22.9199H124.698Z" fill="#F7C324"/>
<defs>
<clipPath id="clip0_415_505">
<rect width="24" height="24" fill="white" transform="translate(12 8)"/>
</clipPath>
</defs>
</svg>
