<svg width="303" height="300" viewBox="0 0 303 300" fill="none" xmlns="http://www.w3.org/2000/svg">
<g clip-path="url(#clip0_425_1088)">
<path d="M303 299.314C303 299.694 302.694 300 302.313 300H0.687232C0.306095 300 0 299.694 0 299.314C0 298.933 0.306095 298.627 0.687232 298.627H302.313C302.694 298.627 303 298.933 303 299.314Z" fill="#3F3D56"/>
<path d="M209.37 265.9L212.835 280.317L202.44 283.201L200.13 267.63L209.37 265.9Z" fill="#FFB6B6"/>
<path d="M226.118 219.186L215.145 228.413L208.215 239.371L218.032 245.714L234.78 226.683L226.118 219.186Z" fill="#FFB6B6"/>
<path d="M222.653 124.028L231.893 155.17C231.893 155.17 272.896 190.927 268.853 198.424C264.81 205.921 237.668 226.683 237.668 226.683C237.668 226.683 239.682 233.322 233.766 230.579C227.85 227.836 221.498 220.339 221.498 220.339C221.498 220.339 221.498 214.572 224.385 215.725C227.273 216.879 240.555 201.307 240.555 201.307L211.68 174.779V263.486C211.68 263.486 218.61 269.537 211.68 270.025C204.75 270.513 198.397 271.667 198.397 271.667C198.397 271.667 190.312 268.783 193.2 265.9L184.537 218.609L178.185 160.937L182.805 130.948L222.653 124.028Z" fill="#2F2E41"/>
<path d="M204.172 278.587C204.172 278.587 204.75 276.28 207.06 276.28H214.115C214.115 276.28 216.3 286.085 215.722 286.085C215.145 286.085 224.963 298.772 214.567 299.349C204.172 299.926 201.285 298.772 201.285 298.772L200.13 294.22C200.13 294.22 198.397 291.275 198.975 288.968C199.552 286.661 204.172 278.587 204.172 278.587Z" fill="#2F2E41"/>
<path d="M218.61 241.101C218.61 241.101 225.243 240.996 223.659 242.779C222.075 244.561 219.188 247.445 219.188 247.445C219.188 247.445 212.319 261.286 209.112 258.691C205.905 256.095 200.707 227.26 202.44 223.799C204.173 220.339 206.483 220.339 206.483 220.339L217.137 226.738C217.137 226.738 210.525 242.831 218.61 241.101Z" fill="#2F2E41"/>
<path d="M202.44 75.0069L204.75 60.589L189.157 54.2451L186.847 76.1603L202.44 75.0069Z" fill="#FFB6B6"/>
<path opacity="0.1" d="M202.44 75.0069L204.75 60.589L189.157 54.2451L186.847 76.1603L202.44 75.0069Z" fill="black"/>
<path d="M185.981 72.9884L204.461 68.3746L224.097 74.7185C224.097 74.7185 232.759 98.9405 229.872 107.591C226.984 116.242 226.984 133.139 226.984 133.139C226.984 133.139 226.695 125.758 209.948 130.948C193.2 136.139 181.072 135.562 181.072 135.562L180.495 114.8L173.24 96.3587C170.139 88.4763 173.481 79.5269 180.994 75.5972L185.981 72.9884Z" fill="#E6E6E6"/>
<path d="M270.814 140.927C273.421 144.047 273.923 147.919 271.935 149.576C269.946 151.233 266.221 150.047 263.613 146.926C262.554 145.693 261.806 144.225 261.431 142.645L250.55 129.287L255.85 125.003L266.985 138.017C268.476 138.667 269.788 139.665 270.814 140.927Z" fill="#FFB6B6"/>
<path d="M223.257 74.9026L219.47 89.8836L238.006 119.514L256.929 138.506L263.062 133.425L243.978 109.712L229.513 79.1595L223.257 74.9026Z" fill="#E6E6E6"/>
<path d="M267.384 60.4428C280.584 59.4686 290.285 45.1601 289.051 28.4837C287.817 11.8074 276.115 -0.921776 262.915 0.0523936C249.715 1.02656 240.014 15.3351 241.248 32.0115C242.482 48.6878 254.184 61.417 267.384 60.4428Z" fill="#F7C324"/>
<path d="M266.882 60.4429H265.727V175.462H266.882V60.4429Z" fill="#2F2E41"/>
<path d="M267.169 58.014L267.308 62.0897L269.152 65.8627L261.458 65.4707L264.692 62.2218L264.326 58.5185L267.169 58.014Z" fill="#F7C324"/>
<path d="M198.499 65.2238C207.281 65.2238 214.4 58.1145 214.4 49.3448C214.4 40.575 207.281 33.4658 198.499 33.4658C189.718 33.4658 182.599 40.575 182.599 49.3448C182.599 58.1145 189.718 65.2238 198.499 65.2238Z" fill="#FFB6B6"/>
<path d="M197.23 27.9966C197.691 28.2648 198.307 27.859 198.454 27.3478C198.602 26.8365 198.43 26.2938 198.26 25.7897L197.402 23.2521C196.793 21.4524 196.147 19.5898 194.83 18.2199C192.841 16.1524 189.68 15.6265 186.834 16.0075C183.18 16.4968 179.575 18.4728 177.876 21.7404C176.176 25.0079 176.9 29.5673 179.97 31.6059C175.594 36.6142 174.069 42.1958 174.31 48.838C174.551 55.4802 181.799 61.5932 186.526 66.2724C187.582 65.6334 188.541 62.6387 187.961 61.5508C187.38 60.4629 188.212 59.2025 187.493 58.2005C186.774 57.1984 186.173 58.794 186.899 57.7976C187.358 57.1689 185.568 55.7224 186.25 55.3461C189.547 53.526 190.644 49.4216 192.715 46.2786C195.213 42.4876 199.488 39.9203 204.012 39.4943C206.504 39.2597 209.137 39.6847 211.18 41.1296C213.222 42.5745 214.545 45.1565 214.071 47.6112C215.298 46.3673 215.909 44.5442 215.678 42.8135C215.448 41.0827 214.382 39.4822 212.872 38.6014C213.79 35.5701 213.004 32.0832 210.873 29.7375C208.743 27.3918 200.1 27.7913 196.99 28.4087" fill="#2F2E41"/>
<path d="M196.747 39.5864C192.628 40.0305 189.653 43.5941 187.142 46.885C185.694 48.7819 184.177 50.8766 184.214 53.2613C184.25 55.6723 185.865 57.7402 186.636 60.0251C187.897 63.7598 186.668 68.2032 183.667 70.7622C186.632 71.3242 189.839 69.1034 190.351 66.1323C190.947 62.6736 188.321 59.3355 188.632 55.8397C188.906 52.7599 191.337 50.3896 193.403 48.0868C195.469 45.784 197.409 42.7283 196.459 39.7856" fill="#2F2E41"/>
<path d="M181.583 135.273H62.808C49.3388 135.273 38.4199 146.177 38.4199 159.628V274.644C38.4199 288.094 49.3388 298.998 62.8079 298.998H181.583C195.052 298.998 205.971 288.094 205.971 274.644V159.628C205.971 146.177 195.052 135.273 181.583 135.273Z" fill="white"/>
<path d="M181.583 299.575H62.8083C49.0424 299.575 37.8428 288.391 37.8428 274.644V159.628C37.8428 145.881 49.0424 134.696 62.8083 134.696H181.583C195.349 134.696 206.549 145.881 206.549 159.628V274.644C206.549 288.391 195.349 299.575 181.583 299.575ZM62.8083 135.85C49.6791 135.85 38.9978 146.517 38.9978 159.628V274.644C38.9978 287.755 49.6791 298.421 62.8083 298.421H181.583C194.713 298.421 205.394 287.755 205.394 274.644V159.628C205.394 146.517 194.713 135.85 181.583 135.85H62.8083Z" fill="#3F3D56"/>
<path d="M169.051 146.588C170.572 146.588 171.805 145.356 171.805 143.837C171.805 142.318 170.572 141.087 169.051 141.087C167.529 141.087 166.296 142.318 166.296 143.837C166.296 145.356 167.529 146.588 169.051 146.588Z" fill="#3F3D56"/>
<path d="M176.624 146.588C178.145 146.588 179.378 145.356 179.378 143.837C179.378 142.318 178.145 141.087 176.624 141.087C175.103 141.087 173.87 142.318 173.87 143.837C173.87 145.356 175.103 146.588 176.624 146.588Z" fill="#3F3D56"/>
<path d="M184.198 146.588C185.719 146.588 186.952 145.356 186.952 143.837C186.952 142.318 185.719 141.087 184.198 141.087C182.677 141.087 181.444 142.318 181.444 143.837C181.444 145.356 182.677 146.588 184.198 146.588Z" fill="#3F3D56"/>
<path d="M58.9145 258.732C58.0588 258.732 57.3628 259.427 57.3628 260.282C57.3628 260.698 57.5239 261.084 57.8164 261.368C58.1114 261.67 58.4978 261.831 58.9145 261.831H183.135C183.991 261.831 184.687 261.136 184.687 260.282C184.687 259.865 184.526 259.48 184.233 259.195C183.938 258.894 183.552 258.732 183.135 258.732H58.9145Z" fill="#E6E6E6"/>
<path d="M125.336 258.216V262.348H58.9146C58.3457 262.348 57.8285 262.121 57.4561 261.738C57.0733 261.367 56.8457 260.85 56.8457 260.282C56.8457 259.145 57.7768 258.216 58.9146 258.216L125.336 258.216Z" fill="#F7C324"/>
<path d="M180.549 250.468H159.86C157.578 250.468 155.722 248.614 155.722 246.335C155.722 244.057 157.578 242.203 159.86 242.203H180.549C182.831 242.203 184.687 244.057 184.687 246.335C184.687 248.614 182.831 250.468 180.549 250.468Z" fill="#E6E6E6"/>
<path d="M102.822 253.421L88.3585 204.892L87.2515 205.221L101.664 253.579" fill="#2F2E41"/>
<path d="M103.322 142.977C116.522 142.003 126.223 127.694 124.989 111.018C123.755 94.3415 112.053 81.6123 98.853 82.5865C85.6526 83.5607 75.9521 97.8693 77.1861 114.546C78.4202 131.222 90.1216 143.951 103.322 142.977Z" fill="#F7C324"/>
<path d="M102.82 142.977H101.665V257.996H102.82V142.977Z" fill="#2F2E41"/>
<path d="M89.0085 203.486L90.3052 207.353L93.1504 210.444L85.6631 212.259L87.8355 208.224L86.4276 204.779L89.0085 203.486Z" fill="#F7C324"/>
<path d="M103.107 140.548L103.246 144.624L105.09 148.397L97.3955 148.005L100.63 144.756L100.264 141.053L103.107 140.548Z" fill="#F7C324"/>
<path d="M89.3976 204.499C101.76 199.777 106.932 183.287 100.949 167.669C94.9667 152.051 80.0949 143.219 67.7322 147.941C55.3696 152.664 50.1976 169.154 56.1803 184.772C62.1631 200.39 77.0349 209.222 89.3976 204.499Z" fill="#F7C324"/>
<path d="M194.336 129.37C198.232 130.544 200.783 133.504 200.034 135.979C199.285 138.455 195.52 139.509 191.623 138.334C190.06 137.885 188.627 137.07 187.445 135.955L171.001 130.771L173.071 124.282L189.536 129.041C191.14 128.766 192.786 128.879 194.336 129.37Z" fill="#FFB6B6"/>
<path d="M165.768 86.8295L183.093 74.1418L182.516 98.3638L166.346 119.126L183.671 126.046L183.093 135.927C183.093 135.927 161.148 130.66 157.683 130.083C154.218 129.506 151.331 121.432 151.331 121.432L165.768 86.8295Z" fill="#E6E6E6"/>
</g>
<defs>
<clipPath id="clip0_425_1088">
<rect width="303" height="300" fill="white"/>
</clipPath>
</defs>
</svg>
